ISO-10303-21;
HEADER;
/* Generated by software containing ST-Developer
 * from STEP Tools, Inc. (www.steptools.com) 
 */

FILE_DESCRIPTION(
/* description */ (''),
/* implementation_level */ '2;1');

FILE_NAME(
/* name */ 'Bottom Case.step',
/* time_stamp */ '2026-05-30T22:28:03-07:00',
/* author */ (''),
/* organization */ (''),
/* preprocessor_version */ 'ST-DEVELOPER v20.1',
/* originating_system */ 'Autodesk Translation Framework v15.8.0.0',
/* authorisation */ '');

FILE_SCHEMA (('AUTOMOTIVE_DESIGN { 1 0 10303 214 3 1 1 }'));
ENDSEC;

DATA;
#10=MECHANICAL_DESIGN_GEOMETRIC_PRESENTATION_REPRESENTATION('',(#13),#921);
#11=SHAPE_REPRESENTATION_RELATIONSHIP('SRR','None',#928,#12);
#12=ADVANCED_BREP_SHAPE_REPRESENTATION('',(#14),#920);
#13=STYLED_ITEM('',(#938),#14);
#14=MANIFOLD_SOLID_BREP('Body4',#541);
#15=FACE_BOUND('',#194,.T.);
#16=FACE_BOUND('',#195,.T.);
#17=FACE_BOUND('',#196,.T.);
#18=FACE_BOUND('',#197,.T.);
#19=FACE_BOUND('',#198,.T.);
#20=FACE_BOUND('',#201,.T.);
#21=FACE_BOUND('',#202,.T.);
#22=FACE_BOUND('',#203,.T.);
#23=FACE_BOUND('',#204,.T.);
#24=FACE_BOUND('',#215,.T.);
#25=FACE_BOUND('',#219,.T.);
#26=PLANE('',#583);
#27=PLANE('',#584);
#28=PLANE('',#589);
#29=PLANE('',#590);
#30=PLANE('',#599);
#31=PLANE('',#600);
#32=PLANE('',#601);
#33=PLANE('',#602);
#34=PLANE('',#603);
#35=PLANE('',#604);
#36=PLANE('',#605);
#37=PLANE('',#606);
#38=PLANE('',#607);
#39=PLANE('',#608);
#40=PLANE('',#609);
#41=LINE('',#786,#89);
#42=LINE('',#787,#90);
#43=LINE('',#796,#91);
#44=LINE('',#797,#92);
#45=LINE('',#802,#93);
#46=LINE('',#803,#94);
#47=LINE('',#812,#95);
#48=LINE('',#813,#96);
#49=LINE('',#815,#97);
#50=LINE('',#816,#98);
#51=LINE('',#821,#99);
#52=LINE('',#822,#100);
#53=LINE('',#827,#101);
#54=LINE('',#828,#102);
#55=LINE('',#833,#103);
#56=LINE('',#834,#104);
#57=LINE('',#836,#105);
#58=LINE('',#838,#106);
#59=LINE('',#839,#107);
#60=LINE('',#840,#108);
#61=LINE('',#851,#109);
#62=LINE('',#853,#110);
#63=LINE('',#855,#111);
#64=LINE('',#856,#112);
#65=LINE('',#868,#113);
#66=LINE('',#870,#114);
#67=LINE('',#872,#115);
#68=LINE('',#874,#116);
#69=LINE('',#878,#117);
#70=LINE('',#880,#118);
#71=LINE('',#882,#119);
#72=LINE('',#883,#120);
#73=LINE('',#886,#121);
#74=LINE('',#888,#122);
#75=LINE('',#889,#123);
#76=LINE('',#892,#124);
#77=LINE('',#894,#125);
#78=LINE('',#895,#126);
#79=LINE('',#897,#127);
#80=LINE('',#898,#128);
#81=LINE('',#902,#129);
#82=LINE('',#903,#130);
#83=LINE('',#904,#131);
#84=LINE('',#907,#132);
#85=LINE('',#908,#133);
#86=LINE('',#911,#134);
#87=LINE('',#912,#135);
#88=LINE('',#914,#136);
#89=VECTOR('',#630,10.);
#90=VECTOR('',#631,10.);
#91=VECTOR('',#642,10.);
#92=VECTOR('',#643,10.);
#93=VECTOR('',#648,10.);
#94=VECTOR('',#649,10.);
#95=VECTOR('',#660,10.);
#96=VECTOR('',#661,10.);
#97=VECTOR('',#664,10.);
#98=VECTOR('',#665,10.);
#99=VECTOR('',#670,10.);
#100=VECTOR('',#671,10.);
#101=VECTOR('',#676,10.);
#102=VECTOR('',#677,10.);
#103=VECTOR('',#682,10.);
#104=VECTOR('',#683,10.);
#105=VECTOR('',#686,10.);
#106=VECTOR('',#689,10.);
#107=VECTOR('',#690,10.);
#108=VECTOR('',#691,10.);
#109=VECTOR('',#700,10.);
#110=VECTOR('',#701,10.);
#111=VECTOR('',#702,10.);
#112=VECTOR('',#703,10.);
#113=VECTOR('',#718,1.6);
#114=VECTOR('',#721,1.6);
#115=VECTOR('',#724,1.6);
#116=VECTOR('',#727,1.6);
#117=VECTOR('',#730,10.);
#118=VECTOR('',#731,10.);
#119=VECTOR('',#732,10.);
#120=VECTOR('',#733,10.);
#121=VECTOR('',#736,10.);
#122=VECTOR('',#737,10.);
#123=VECTOR('',#738,10.);
#124=VECTOR('',#741,10.);
#125=VECTOR('',#742,10.);
#126=VECTOR('',#743,10.);
#127=VECTOR('',#746,10.);
#128=VECTOR('',#747,10.);
#129=VECTOR('',#750,10.);
#130=VECTOR('',#751,10.);
#131=VECTOR('',#752,10.);
#132=VECTOR('',#755,10.);
#133=VECTOR('',#756,10.);
#134=VECTOR('',#759,10.);
#135=VECTOR('',#760,10.);
#136=VECTOR('',#763,10.);
#137=CYLINDRICAL_SURFACE('',#563,2.);
#138=CYLINDRICAL_SURFACE('',#568,2.);
#139=CYLINDRICAL_SURFACE('',#569,2.);
#140=CYLINDRICAL_SURFACE('',#575,2.);
#141=CYLINDRICAL_SURFACE('',#576,2.);
#142=CYLINDRICAL_SURFACE('',#577,2.);
#143=CYLINDRICAL_SURFACE('',#579,2.);
#144=CYLINDRICAL_SURFACE('',#581,2.);
#145=CYLINDRICAL_SURFACE('',#595,1.6);
#146=CYLINDRICAL_SURFACE('',#596,1.6);
#147=CYLINDRICAL_SURFACE('',#597,1.6);
#148=CYLINDRICAL_SURFACE('',#598,1.6);
#149=FACE_OUTER_BOUND('',#180,.T.);
#150=FACE_OUTER_BOUND('',#181,.T.);
#151=FACE_OUTER_BOUND('',#182,.T.);
#152=FACE_OUTER_BOUND('',#183,.T.);
#153=FACE_OUTER_BOUND('',#184,.T.);
#154=FACE_OUTER_BOUND('',#185,.T.);
#155=FACE_OUTER_BOUND('',#186,.T.);
#156=FACE_OUTER_BOUND('',#187,.T.);
#157=FACE_OUTER_BOUND('',#188,.T.);
#158=FACE_OUTER_BOUND('',#189,.T.);
#159=FACE_OUTER_BOUND('',#190,.T.);
#160=FACE_OUTER_BOUND('',#191,.T.);
#161=FACE_OUTER_BOUND('',#192,.T.);
#162=FACE_OUTER_BOUND('',#193,.T.);
#163=FACE_OUTER_BOUND('',#199,.T.);
#164=FACE_OUTER_BOUND('',#200,.T.);
#165=FACE_OUTER_BOUND('',#205,.T.);
#166=FACE_OUTER_BOUND('',#206,.T.);
#167=FACE_OUTER_BOUND('',#207,.T.);
#168=FACE_OUTER_BOUND('',#208,.T.);
#169=FACE_OUTER_BOUND('',#209,.T.);
#170=FACE_OUTER_BOUND('',#210,.T.);
#171=FACE_OUTER_BOUND('',#211,.T.);
#172=FACE_OUTER_BOUND('',#212,.T.);
#173=FACE_OUTER_BOUND('',#213,.T.);
#174=FACE_OUTER_BOUND('',#214,.T.);
#175=FACE_OUTER_BOUND('',#216,.T.);
#176=FACE_OUTER_BOUND('',#217,.T.);
#177=FACE_OUTER_BOUND('',#218,.T.);
#178=FACE_OUTER_BOUND('',#220,.T.);
#179=FACE_OUTER_BOUND('',#221,.T.);
#180=EDGE_LOOP('',(#362,#363,#364));
#181=EDGE_LOOP('',(#365,#366,#367));
#182=EDGE_LOOP('',(#368,#369,#370,#371));
#183=EDGE_LOOP('',(#372,#373,#374));
#184=EDGE_LOOP('',(#375,#376,#377,#378));
#185=EDGE_LOOP('',(#379,#380,#381,#382));
#186=EDGE_LOOP('',(#383,#384,#385));
#187=EDGE_LOOP('',(#386,#387,#388,#389));
#188=EDGE_LOOP('',(#390,#391,#392,#393));
#189=EDGE_LOOP('',(#394,#395,#396,#397));
#190=EDGE_LOOP('',(#398,#399,#400,#401));
#191=EDGE_LOOP('',(#402,#403,#404,#405));
#192=EDGE_LOOP('',(#406,#407,#408,#409));
#193=EDGE_LOOP('',(#410,#411,#412,#413,#414,#415,#416,#417));
#194=EDGE_LOOP('',(#418));
#195=EDGE_LOOP('',(#419));
#196=EDGE_LOOP('',(#420));
#197=EDGE_LOOP('',(#421));
#198=EDGE_LOOP('',(#422,#423,#424,#425));
#199=EDGE_LOOP('',(#426,#427,#428,#429));
#200=EDGE_LOOP('',(#430,#431,#432,#433));
#201=EDGE_LOOP('',(#434));
#202=EDGE_LOOP('',(#435));
#203=EDGE_LOOP('',(#436));
#204=EDGE_LOOP('',(#437));
#205=EDGE_LOOP('',(#438,#439,#440,#441));
#206=EDGE_LOOP('',(#442,#443,#444,#445));
#207=EDGE_LOOP('',(#446,#447,#448,#449));
#208=EDGE_LOOP('',(#450,#451,#452,#453));
#209=EDGE_LOOP('',(#454,#455,#456,#457));
#210=EDGE_LOOP('',(#458,#459,#460,#461));
#211=EDGE_LOOP('',(#462,#463,#464,#465));
#212=EDGE_LOOP('',(#466,#467,#468,#469));
#213=EDGE_LOOP('',(#470,#471,#472,#473));
#214=EDGE_LOOP('',(#474,#475,#476,#477));
#215=EDGE_LOOP('',(#478,#479,#480,#481));
#216=EDGE_LOOP('',(#482,#483,#484,#485));
#217=EDGE_LOOP('',(#486,#487,#488,#489));
#218=EDGE_LOOP('',(#490,#491,#492,#493));
#219=EDGE_LOOP('',(#494,#495,#496,#497));
#220=EDGE_LOOP('',(#498,#499,#500,#501));
#221=EDGE_LOOP('',(#502,#503,#504,#505));
#222=CIRCLE('',#556,2.);
#223=CIRCLE('',#557,2.);
#224=CIRCLE('',#558,2.);
#225=CIRCLE('',#560,2.);
#226=CIRCLE('',#561,2.);
#227=CIRCLE('',#562,2.);
#228=CIRCLE('',#565,2.);
#229=CIRCLE('',#566,2.);
#230=CIRCLE('',#567,2.);
#231=CIRCLE('',#570,2.);
#232=CIRCLE('',#572,2.);
#233=CIRCLE('',#573,2.);
#234=CIRCLE('',#574,2.);
#235=CIRCLE('',#578,2.);
#236=CIRCLE('',#580,2.);
#237=CIRCLE('',#582,2.);
#238=CIRCLE('',#585,1.6);
#239=CIRCLE('',#586,1.6);
#240=CIRCLE('',#587,1.6);
#241=CIRCLE('',#588,1.6);
#242=CIRCLE('',#591,1.6);
#243=CIRCLE('',#592,1.6);
#244=CIRCLE('',#593,1.6);
#245=CIRCLE('',#594,1.6);
#246=VERTEX_POINT('',#772);
#247=VERTEX_POINT('',#773);
#248=VERTEX_POINT('',#775);
#249=VERTEX_POINT('',#779);
#250=VERTEX_POINT('',#780);
#251=VERTEX_POINT('',#782);
#252=VERTEX_POINT('',#789);
#253=VERTEX_POINT('',#790);
#254=VERTEX_POINT('',#792);
#255=VERTEX_POINT('',#799);
#256=VERTEX_POINT('',#800);
#257=VERTEX_POINT('',#805);
#258=VERTEX_POINT('',#806);
#259=VERTEX_POINT('',#808);
#260=VERTEX_POINT('',#818);
#261=VERTEX_POINT('',#819);
#262=VERTEX_POINT('',#824);
#263=VERTEX_POINT('',#825);
#264=VERTEX_POINT('',#830);
#265=VERTEX_POINT('',#831);
#266=VERTEX_POINT('',#841);
#267=VERTEX_POINT('',#843);
#268=VERTEX_POINT('',#845);
#269=VERTEX_POINT('',#847);
#270=VERTEX_POINT('',#849);
#271=VERTEX_POINT('',#850);
#272=VERTEX_POINT('',#852);
#273=VERTEX_POINT('',#854);
#274=VERTEX_POINT('',#859);
#275=VERTEX_POINT('',#861);
#276=VERTEX_POINT('',#863);
#277=VERTEX_POINT('',#865);
#278=VERTEX_POINT('',#876);
#279=VERTEX_POINT('',#877);
#280=VERTEX_POINT('',#879);
#281=VERTEX_POINT('',#881);
#282=VERTEX_POINT('',#885);
#283=VERTEX_POINT('',#887);
#284=VERTEX_POINT('',#891);
#285=VERTEX_POINT('',#893);
#286=VERTEX_POINT('',#900);
#287=VERTEX_POINT('',#901);
#288=VERTEX_POINT('',#906);
#289=VERTEX_POINT('',#910);
#290=EDGE_CURVE('',#246,#247,#222,.F.);
#291=EDGE_CURVE('',#248,#246,#223,.F.);
#292=EDGE_CURVE('',#247,#248,#224,.F.);
#293=EDGE_CURVE('',#249,#250,#225,.F.);
#294=EDGE_CURVE('',#251,#249,#226,.F.);
#295=EDGE_CURVE('',#250,#251,#227,.F.);
#296=EDGE_CURVE('',#249,#247,#41,.T.);
#297=EDGE_CURVE('',#248,#251,#42,.T.);
#298=EDGE_CURVE('',#252,#253,#228,.F.);
#299=EDGE_CURVE('',#254,#252,#229,.F.);
#300=EDGE_CURVE('',#253,#254,#230,.F.);
#301=EDGE_CURVE('',#246,#254,#43,.T.);
#302=EDGE_CURVE('',#252,#248,#44,.T.);
#303=EDGE_CURVE('',#255,#256,#231,.T.);
#304=EDGE_CURVE('',#256,#253,#45,.T.);
#305=EDGE_CURVE('',#254,#255,#46,.T.);
#306=EDGE_CURVE('',#257,#258,#232,.F.);
#307=EDGE_CURVE('',#259,#257,#233,.F.);
#308=EDGE_CURVE('',#258,#259,#234,.F.);
#309=EDGE_CURVE('',#257,#250,#47,.T.);
#310=EDGE_CURVE('',#251,#259,#48,.T.);
#311=EDGE_CURVE('',#253,#258,#49,.T.);
#312=EDGE_CURVE('',#259,#252,#50,.T.);
#313=EDGE_CURVE('',#260,#261,#235,.T.);
#314=EDGE_CURVE('',#261,#257,#51,.T.);
#315=EDGE_CURVE('',#258,#260,#52,.T.);
#316=EDGE_CURVE('',#262,#263,#236,.T.);
#317=EDGE_CURVE('',#263,#249,#53,.T.);
#318=EDGE_CURVE('',#250,#262,#54,.T.);
#319=EDGE_CURVE('',#264,#265,#237,.T.);
#320=EDGE_CURVE('',#265,#246,#55,.T.);
#321=EDGE_CURVE('',#247,#264,#56,.T.);
#322=EDGE_CURVE('',#264,#263,#57,.T.);
#323=EDGE_CURVE('',#262,#261,#58,.T.);
#324=EDGE_CURVE('',#260,#256,#59,.T.);
#325=EDGE_CURVE('',#255,#265,#60,.T.);
#326=EDGE_CURVE('',#266,#266,#238,.T.);
#327=EDGE_CURVE('',#267,#267,#239,.T.);
#328=EDGE_CURVE('',#268,#268,#240,.T.);
#329=EDGE_CURVE('',#269,#269,#241,.T.);
#330=EDGE_CURVE('',#270,#271,#61,.T.);
#331=EDGE_CURVE('',#271,#272,#62,.T.);
#332=EDGE_CURVE('',#272,#273,#63,.T.);
#333=EDGE_CURVE('',#273,#270,#64,.T.);
#334=EDGE_CURVE('',#274,#274,#242,.T.);
#335=EDGE_CURVE('',#275,#275,#243,.T.);
#336=EDGE_CURVE('',#276,#276,#244,.T.);
#337=EDGE_CURVE('',#277,#277,#245,.T.);
#338=EDGE_CURVE('',#266,#277,#65,.T.);
#339=EDGE_CURVE('',#267,#276,#66,.T.);
#340=EDGE_CURVE('',#268,#275,#67,.T.);
#341=EDGE_CURVE('',#269,#274,#68,.T.);
#342=EDGE_CURVE('',#278,#279,#69,.T.);
#343=EDGE_CURVE('',#278,#280,#70,.T.);
#344=EDGE_CURVE('',#281,#280,#71,.T.);
#345=EDGE_CURVE('',#279,#281,#72,.T.);
#346=EDGE_CURVE('',#282,#278,#73,.T.);
#347=EDGE_CURVE('',#282,#283,#74,.T.);
#348=EDGE_CURVE('',#280,#283,#75,.T.);
#349=EDGE_CURVE('',#284,#282,#76,.T.);
#350=EDGE_CURVE('',#284,#285,#77,.T.);
#351=EDGE_CURVE('',#283,#285,#78,.T.);
#352=EDGE_CURVE('',#279,#284,#79,.T.);
#353=EDGE_CURVE('',#285,#281,#80,.T.);
#354=EDGE_CURVE('',#286,#287,#81,.T.);
#355=EDGE_CURVE('',#286,#270,#82,.T.);
#356=EDGE_CURVE('',#287,#273,#83,.T.);
#357=EDGE_CURVE('',#288,#286,#84,.T.);
#358=EDGE_CURVE('',#288,#271,#85,.T.);
#359=EDGE_CURVE('',#287,#289,#86,.T.);
#360=EDGE_CURVE('',#289,#272,#87,.T.);
#361=EDGE_CURVE('',#289,#288,#88,.T.);
#362=ORIENTED_EDGE('',*,*,#290,.F.);
#363=ORIENTED_EDGE('',*,*,#291,.F.);
#364=ORIENTED_EDGE('',*,*,#292,.F.);
#365=ORIENTED_EDGE('',*,*,#293,.F.);
#366=ORIENTED_EDGE('',*,*,#294,.F.);
#367=ORIENTED_EDGE('',*,*,#295,.F.);
#368=ORIENTED_EDGE('',*,*,#294,.T.);
#369=ORIENTED_EDGE('',*,*,#296,.T.);
#370=ORIENTED_EDGE('',*,*,#292,.T.);
#371=ORIENTED_EDGE('',*,*,#297,.T.);
#372=ORIENTED_EDGE('',*,*,#298,.F.);
#373=ORIENTED_EDGE('',*,*,#299,.F.);
#374=ORIENTED_EDGE('',*,*,#300,.F.);
#375=ORIENTED_EDGE('',*,*,#291,.T.);
#376=ORIENTED_EDGE('',*,*,#301,.T.);
#377=ORIENTED_EDGE('',*,*,#299,.T.);
#378=ORIENTED_EDGE('',*,*,#302,.T.);
#379=ORIENTED_EDGE('',*,*,#303,.T.);
#380=ORIENTED_EDGE('',*,*,#304,.T.);
#381=ORIENTED_EDGE('',*,*,#300,.T.);
#382=ORIENTED_EDGE('',*,*,#305,.T.);
#383=ORIENTED_EDGE('',*,*,#306,.F.);
#384=ORIENTED_EDGE('',*,*,#307,.F.);
#385=ORIENTED_EDGE('',*,*,#308,.F.);
#386=ORIENTED_EDGE('',*,*,#307,.T.);
#387=ORIENTED_EDGE('',*,*,#309,.T.);
#388=ORIENTED_EDGE('',*,*,#295,.T.);
#389=ORIENTED_EDGE('',*,*,#310,.T.);
#390=ORIENTED_EDGE('',*,*,#298,.T.);
#391=ORIENTED_EDGE('',*,*,#311,.T.);
#392=ORIENTED_EDGE('',*,*,#308,.T.);
#393=ORIENTED_EDGE('',*,*,#312,.T.);
#394=ORIENTED_EDGE('',*,*,#313,.T.);
#395=ORIENTED_EDGE('',*,*,#314,.T.);
#396=ORIENTED_EDGE('',*,*,#306,.T.);
#397=ORIENTED_EDGE('',*,*,#315,.T.);
#398=ORIENTED_EDGE('',*,*,#316,.T.);
#399=ORIENTED_EDGE('',*,*,#317,.T.);
#400=ORIENTED_EDGE('',*,*,#293,.T.);
#401=ORIENTED_EDGE('',*,*,#318,.T.);
#402=ORIENTED_EDGE('',*,*,#319,.T.);
#403=ORIENTED_EDGE('',*,*,#320,.T.);
#404=ORIENTED_EDGE('',*,*,#290,.T.);
#405=ORIENTED_EDGE('',*,*,#321,.T.);
#406=ORIENTED_EDGE('',*,*,#321,.F.);
#407=ORIENTED_EDGE('',*,*,#296,.F.);
#408=ORIENTED_EDGE('',*,*,#317,.F.);
#409=ORIENTED_EDGE('',*,*,#322,.F.);
#410=ORIENTED_EDGE('',*,*,#319,.F.);
#411=ORIENTED_EDGE('',*,*,#322,.T.);
#412=ORIENTED_EDGE('',*,*,#316,.F.);
#413=ORIENTED_EDGE('',*,*,#323,.T.);
#414=ORIENTED_EDGE('',*,*,#313,.F.);
#415=ORIENTED_EDGE('',*,*,#324,.T.);
#416=ORIENTED_EDGE('',*,*,#303,.F.);
#417=ORIENTED_EDGE('',*,*,#325,.T.);
#418=ORIENTED_EDGE('',*,*,#326,.T.);
#419=ORIENTED_EDGE('',*,*,#327,.T.);
#420=ORIENTED_EDGE('',*,*,#328,.T.);
#421=ORIENTED_EDGE('',*,*,#329,.T.);
#422=ORIENTED_EDGE('',*,*,#330,.T.);
#423=ORIENTED_EDGE('',*,*,#331,.T.);
#424=ORIENTED_EDGE('',*,*,#332,.T.);
#425=ORIENTED_EDGE('',*,*,#333,.T.);
#426=ORIENTED_EDGE('',*,*,#318,.F.);
#427=ORIENTED_EDGE('',*,*,#309,.F.);
#428=ORIENTED_EDGE('',*,*,#314,.F.);
#429=ORIENTED_EDGE('',*,*,#323,.F.);
#430=ORIENTED_EDGE('',*,*,#297,.F.);
#431=ORIENTED_EDGE('',*,*,#302,.F.);
#432=ORIENTED_EDGE('',*,*,#312,.F.);
#433=ORIENTED_EDGE('',*,*,#310,.F.);
#434=ORIENTED_EDGE('',*,*,#334,.T.);
#435=ORIENTED_EDGE('',*,*,#335,.T.);
#436=ORIENTED_EDGE('',*,*,#336,.T.);
#437=ORIENTED_EDGE('',*,*,#337,.T.);
#438=ORIENTED_EDGE('',*,*,#326,.F.);
#439=ORIENTED_EDGE('',*,*,#338,.T.);
#440=ORIENTED_EDGE('',*,*,#337,.F.);
#441=ORIENTED_EDGE('',*,*,#338,.F.);
#442=ORIENTED_EDGE('',*,*,#327,.F.);
#443=ORIENTED_EDGE('',*,*,#339,.T.);
#444=ORIENTED_EDGE('',*,*,#336,.F.);
#445=ORIENTED_EDGE('',*,*,#339,.F.);
#446=ORIENTED_EDGE('',*,*,#328,.F.);
#447=ORIENTED_EDGE('',*,*,#340,.T.);
#448=ORIENTED_EDGE('',*,*,#335,.F.);
#449=ORIENTED_EDGE('',*,*,#340,.F.);
#450=ORIENTED_EDGE('',*,*,#329,.F.);
#451=ORIENTED_EDGE('',*,*,#341,.T.);
#452=ORIENTED_EDGE('',*,*,#334,.F.);
#453=ORIENTED_EDGE('',*,*,#341,.F.);
#454=ORIENTED_EDGE('',*,*,#342,.F.);
#455=ORIENTED_EDGE('',*,*,#343,.T.);
#456=ORIENTED_EDGE('',*,*,#344,.F.);
#457=ORIENTED_EDGE('',*,*,#345,.F.);
#458=ORIENTED_EDGE('',*,*,#346,.F.);
#459=ORIENTED_EDGE('',*,*,#347,.T.);
#460=ORIENTED_EDGE('',*,*,#348,.F.);
#461=ORIENTED_EDGE('',*,*,#343,.F.);
#462=ORIENTED_EDGE('',*,*,#349,.F.);
#463=ORIENTED_EDGE('',*,*,#350,.T.);
#464=ORIENTED_EDGE('',*,*,#351,.F.);
#465=ORIENTED_EDGE('',*,*,#347,.F.);
#466=ORIENTED_EDGE('',*,*,#352,.F.);
#467=ORIENTED_EDGE('',*,*,#345,.T.);
#468=ORIENTED_EDGE('',*,*,#353,.F.);
#469=ORIENTED_EDGE('',*,*,#350,.F.);
#470=ORIENTED_EDGE('',*,*,#354,.F.);
#471=ORIENTED_EDGE('',*,*,#355,.T.);
#472=ORIENTED_EDGE('',*,*,#333,.F.);
#473=ORIENTED_EDGE('',*,*,#356,.F.);
#474=ORIENTED_EDGE('',*,*,#357,.F.);
#475=ORIENTED_EDGE('',*,*,#358,.T.);
#476=ORIENTED_EDGE('',*,*,#330,.F.);
#477=ORIENTED_EDGE('',*,*,#355,.F.);
#478=ORIENTED_EDGE('',*,*,#344,.T.);
#479=ORIENTED_EDGE('',*,*,#348,.T.);
#480=ORIENTED_EDGE('',*,*,#351,.T.);
#481=ORIENTED_EDGE('',*,*,#353,.T.);
#482=ORIENTED_EDGE('',*,*,#359,.F.);
#483=ORIENTED_EDGE('',*,*,#356,.T.);
#484=ORIENTED_EDGE('',*,*,#332,.F.);
#485=ORIENTED_EDGE('',*,*,#360,.F.);
#486=ORIENTED_EDGE('',*,*,#361,.F.);
#487=ORIENTED_EDGE('',*,*,#360,.T.);
#488=ORIENTED_EDGE('',*,*,#331,.F.);
#489=ORIENTED_EDGE('',*,*,#358,.F.);
#490=ORIENTED_EDGE('',*,*,#304,.F.);
#491=ORIENTED_EDGE('',*,*,#324,.F.);
#492=ORIENTED_EDGE('',*,*,#315,.F.);
#493=ORIENTED_EDGE('',*,*,#311,.F.);
#494=ORIENTED_EDGE('',*,*,#342,.T.);
#495=ORIENTED_EDGE('',*,*,#352,.T.);
#496=ORIENTED_EDGE('',*,*,#349,.T.);
#497=ORIENTED_EDGE('',*,*,#346,.T.);
#498=ORIENTED_EDGE('',*,*,#320,.F.);
#499=ORIENTED_EDGE('',*,*,#325,.F.);
#500=ORIENTED_EDGE('',*,*,#305,.F.);
#501=ORIENTED_EDGE('',*,*,#301,.F.);
#502=ORIENTED_EDGE('',*,*,#357,.T.);
#503=ORIENTED_EDGE('',*,*,#354,.T.);
#504=ORIENTED_EDGE('',*,*,#359,.T.);
#505=ORIENTED_EDGE('',*,*,#361,.T.);
#506=SPHERICAL_SURFACE('',#555,2.);
#507=SPHERICAL_SURFACE('',#559,2.);
#508=SPHERICAL_SURFACE('',#564,2.);
#509=SPHERICAL_SURFACE('',#571,2.);
#510=ADVANCED_FACE('',(#149),#506,.T.);
#511=ADVANCED_FACE('',(#150),#507,.T.);
#512=ADVANCED_FACE('',(#151),#137,.T.);
#513=ADVANCED_FACE('',(#152),#508,.T.);
#514=ADVANCED_FACE('',(#153),#138,.T.);
#515=ADVANCED_FACE('',(#154),#139,.T.);
#516=ADVANCED_FACE('',(#155),#509,.T.);
#517=ADVANCED_FACE('',(#156),#140,.T.);
#518=ADVANCED_FACE('',(#157),#141,.T.);
#519=ADVANCED_FACE('',(#158),#142,.T.);
#520=ADVANCED_FACE('',(#159),#143,.T.);
#521=ADVANCED_FACE('',(#160),#144,.T.);
#522=ADVANCED_FACE('',(#161),#26,.T.);
#523=ADVANCED_FACE('',(#162,#15,#16,#17,#18,#19),#27,.T.);
#524=ADVANCED_FACE('',(#163),#28,.T.);
#525=ADVANCED_FACE('',(#164,#20,#21,#22,#23),#29,.F.);
#526=ADVANCED_FACE('',(#165),#145,.F.);
#527=ADVANCED_FACE('',(#166),#146,.F.);
#528=ADVANCED_FACE('',(#167),#147,.F.);
#529=ADVANCED_FACE('',(#168),#148,.F.);
#530=ADVANCED_FACE('',(#169),#30,.F.);
#531=ADVANCED_FACE('',(#170),#31,.F.);
#532=ADVANCED_FACE('',(#171),#32,.F.);
#533=ADVANCED_FACE('',(#172),#33,.F.);
#534=ADVANCED_FACE('',(#173),#34,.T.);
#535=ADVANCED_FACE('',(#174,#24),#35,.T.);
#536=ADVANCED_FACE('',(#175),#36,.T.);
#537=ADVANCED_FACE('',(#176),#37,.T.);
#538=ADVANCED_FACE('',(#177,#25),#38,.T.);
#539=ADVANCED_FACE('',(#178),#39,.T.);
#540=ADVANCED_FACE('',(#179),#40,.T.);
#541=CLOSED_SHELL('',(#510,#511,#512,#513,#514,#515,#516,#517,#518,#519,
#520,#521,#522,#523,#524,#525,#526,#527,#528,#529,#530,#531,#532,#533,#534,
#535,#536,#537,#538,#539,#540));
#542=DERIVED_UNIT_ELEMENT(#544,1.);
#543=DERIVED_UNIT_ELEMENT(#923,-3.);
#544=(
MASS_UNIT()
NAMED_UNIT(*)
SI_UNIT(.KILO.,.GRAM.)
);
#545=DERIVED_UNIT((#542,#543));
#546=MEASURE_REPRESENTATION_ITEM('density measure',
POSITIVE_RATIO_MEASURE(7850.),#545);
#547=PROPERTY_DEFINITION_REPRESENTATION(#552,#549);
#548=PROPERTY_DEFINITION_REPRESENTATION(#553,#550);
#549=REPRESENTATION('material name',(#551),#920);
#550=REPRESENTATION('density',(#546),#920);
#551=DESCRIPTIVE_REPRESENTATION_ITEM('Steel','Steel');
#552=PROPERTY_DEFINITION('material property','material name',#930);
#553=PROPERTY_DEFINITION('material property','density of part',#930);
#554=AXIS2_PLACEMENT_3D('',#770,#610,#611);
#555=AXIS2_PLACEMENT_3D('',#771,#612,#613);
#556=AXIS2_PLACEMENT_3D('',#774,#614,#615);
#557=AXIS2_PLACEMENT_3D('',#776,#616,#617);
#558=AXIS2_PLACEMENT_3D('',#777,#618,#619);
#559=AXIS2_PLACEMENT_3D('',#778,#620,#621);
#560=AXIS2_PLACEMENT_3D('',#781,#622,#623);
#561=AXIS2_PLACEMENT_3D('',#783,#624,#625);
#562=AXIS2_PLACEMENT_3D('',#784,#626,#627);
#563=AXIS2_PLACEMENT_3D('',#785,#628,#629);
#564=AXIS2_PLACEMENT_3D('',#788,#632,#633);
#565=AXIS2_PLACEMENT_3D('',#791,#634,#635);
#566=AXIS2_PLACEMENT_3D('',#793,#636,#637);
#567=AXIS2_PLACEMENT_3D('',#794,#638,#639);
#568=AXIS2_PLACEMENT_3D('',#795,#640,#641);
#569=AXIS2_PLACEMENT_3D('',#798,#644,#645);
#570=AXIS2_PLACEMENT_3D('',#801,#646,#647);
#571=AXIS2_PLACEMENT_3D('',#804,#650,#651);
#572=AXIS2_PLACEMENT_3D('',#807,#652,#653);
#573=AXIS2_PLACEMENT_3D('',#809,#654,#655);
#574=AXIS2_PLACEMENT_3D('',#810,#656,#657);
#575=AXIS2_PLACEMENT_3D('',#811,#658,#659);
#576=AXIS2_PLACEMENT_3D('',#814,#662,#663);
#577=AXIS2_PLACEMENT_3D('',#817,#666,#667);
#578=AXIS2_PLACEMENT_3D('',#820,#668,#669);
#579=AXIS2_PLACEMENT_3D('',#823,#672,#673);
#580=AXIS2_PLACEMENT_3D('',#826,#674,#675);
#581=AXIS2_PLACEMENT_3D('',#829,#678,#679);
#582=AXIS2_PLACEMENT_3D('',#832,#680,#681);
#583=AXIS2_PLACEMENT_3D('',#835,#684,#685);
#584=AXIS2_PLACEMENT_3D('',#837,#687,#688);
#585=AXIS2_PLACEMENT_3D('',#842,#692,#693);
#586=AXIS2_PLACEMENT_3D('',#844,#694,#695);
#587=AXIS2_PLACEMENT_3D('',#846,#696,#697);
#588=AXIS2_PLACEMENT_3D('',#848,#698,#699);
#589=AXIS2_PLACEMENT_3D('',#857,#704,#705);
#590=AXIS2_PLACEMENT_3D('',#858,#706,#707);
#591=AXIS2_PLACEMENT_3D('',#860,#708,#709);
#592=AXIS2_PLACEMENT_3D('',#862,#710,#711);
#593=AXIS2_PLACEMENT_3D('',#864,#712,#713);
#594=AXIS2_PLACEMENT_3D('',#866,#714,#715);
#595=AXIS2_PLACEMENT_3D('',#867,#716,#717);
#596=AXIS2_PLACEMENT_3D('',#869,#719,#720);
#597=AXIS2_PLACEMENT_3D('',#871,#722,#723);
#598=AXIS2_PLACEMENT_3D('',#873,#725,#726);
#599=AXIS2_PLACEMENT_3D('',#875,#728,#729);
#600=AXIS2_PLACEMENT_3D('',#884,#734,#735);
#601=AXIS2_PLACEMENT_3D('',#890,#739,#740);
#602=AXIS2_PLACEMENT_3D('',#896,#744,#745);
#603=AXIS2_PLACEMENT_3D('',#899,#748,#749);
#604=AXIS2_PLACEMENT_3D('',#905,#753,#754);
#605=AXIS2_PLACEMENT_3D('',#909,#757,#758);
#606=AXIS2_PLACEMENT_3D('',#913,#761,#762);
#607=AXIS2_PLACEMENT_3D('',#915,#764,#765);
#608=AXIS2_PLACEMENT_3D('',#916,#766,#767);
#609=AXIS2_PLACEMENT_3D('',#917,#768,#769);
#610=DIRECTION('axis',(0.,0.,1.));
#611=DIRECTION('refdir',(1.,0.,0.));
#612=DIRECTION('center_axis',(-0.816496580927726,-0.408248290463863,0.408248290463863));
#613=DIRECTION('ref_axis',(-0.577350269189626,0.577350269189626,-0.577350269189625));
#614=DIRECTION('center_axis',(0.,0.,-1.));
#615=DIRECTION('ref_axis',(0.,1.,0.));
#616=DIRECTION('center_axis',(-1.,0.,0.));
#617=DIRECTION('ref_axis',(0.,0.,-1.));
#618=DIRECTION('center_axis',(0.,1.,0.));
#619=DIRECTION('ref_axis',(-1.,0.,0.));
#620=DIRECTION('center_axis',(-0.816496580927727,0.408248290463863,0.408248290463862));
#621=DIRECTION('ref_axis',(-0.577350269189626,-0.577350269189626,-0.577350269189625));
#622=DIRECTION('center_axis',(0.,0.,-1.));
#623=DIRECTION('ref_axis',(-1.,0.,0.));
#624=DIRECTION('center_axis',(0.,-1.,0.));
#625=DIRECTION('ref_axis',(0.,0.,-1.));
#626=DIRECTION('center_axis',(-1.,0.,0.));
#627=DIRECTION('ref_axis',(0.,-1.,0.));
#628=DIRECTION('center_axis',(0.,-1.,0.));
#629=DIRECTION('ref_axis',(-0.707106781186548,0.,-0.707106781186547));
#630=DIRECTION('',(0.,1.,0.));
#631=DIRECTION('',(0.,-1.,0.));
#632=DIRECTION('center_axis',(-0.408248290463863,-0.408248290463863,-0.816496580927726));
#633=DIRECTION('ref_axis',(0.577350269189626,0.577350269189626,-0.577350269189626));
#634=DIRECTION('center_axis',(0.,1.,0.));
#635=DIRECTION('ref_axis',(0.,0.,-1.));
#636=DIRECTION('center_axis',(1.,0.,0.));
#637=DIRECTION('ref_axis',(0.,1.,0.));
#638=DIRECTION('center_axis',(0.,0.,-1.));
#639=DIRECTION('ref_axis',(1.,0.,0.));
#640=DIRECTION('center_axis',(-1.,0.,0.));
#641=DIRECTION('ref_axis',(0.,0.707106781186548,-0.707106781186547));
#642=DIRECTION('',(1.,0.,0.));
#643=DIRECTION('',(-1.,0.,0.));
#644=DIRECTION('center_axis',(0.,0.,1.));
#645=DIRECTION('ref_axis',(0.707106781186548,0.707106781186548,0.));
#646=DIRECTION('center_axis',(0.,0.,-1.));
#647=DIRECTION('ref_axis',(0.707106781186548,0.707106781186548,0.));
#648=DIRECTION('',(0.,0.,-1.));
#649=DIRECTION('',(0.,0.,1.));
#650=DIRECTION('center_axis',(-0.816496580927726,-0.408248290463863,-0.408248290463863));
#651=DIRECTION('ref_axis',(0.577350269189626,-0.577350269189626,-0.577350269189625));
#652=DIRECTION('center_axis',(0.,0.,-1.));
#653=DIRECTION('ref_axis',(0.,-1.,0.));
#654=DIRECTION('center_axis',(1.,0.,0.));
#655=DIRECTION('ref_axis',(0.,0.,-1.));
#656=DIRECTION('center_axis',(0.,-1.,0.));
#657=DIRECTION('ref_axis',(1.,0.,0.));
#658=DIRECTION('center_axis',(1.,0.,0.));
#659=DIRECTION('ref_axis',(0.,-0.707106781186548,-0.707106781186547));
#660=DIRECTION('',(-1.,0.,0.));
#661=DIRECTION('',(1.,0.,0.));
#662=DIRECTION('center_axis',(0.,1.,0.));
#663=DIRECTION('ref_axis',(0.707106781186548,0.,-0.707106781186547));
#664=DIRECTION('',(0.,-1.,0.));
#665=DIRECTION('',(0.,1.,0.));
#666=DIRECTION('center_axis',(0.,0.,1.));
#667=DIRECTION('ref_axis',(0.707106781186548,-0.707106781186548,0.));
#668=DIRECTION('center_axis',(0.,0.,-1.));
#669=DIRECTION('ref_axis',(0.707106781186548,-0.707106781186548,0.));
#670=DIRECTION('',(0.,0.,-1.));
#671=DIRECTION('',(0.,0.,1.));
#672=DIRECTION('center_axis',(0.,0.,1.));
#673=DIRECTION('ref_axis',(-0.707106781186548,-0.707106781186548,0.));
#674=DIRECTION('center_axis',(0.,0.,-1.));
#675=DIRECTION('ref_axis',(-0.707106781186548,-0.707106781186548,0.));
#676=DIRECTION('',(0.,0.,-1.));
#677=DIRECTION('',(0.,0.,1.));
#678=DIRECTION('center_axis',(0.,0.,1.));
#679=DIRECTION('ref_axis',(-0.707106781186548,0.707106781186548,0.));
#680=DIRECTION('center_axis',(0.,0.,-1.));
#681=DIRECTION('ref_axis',(-0.707106781186548,0.707106781186548,0.));
#682=DIRECTION('',(0.,0.,-1.));
#683=DIRECTION('',(0.,0.,1.));
#684=DIRECTION('center_axis',(-1.,0.,0.));
#685=DIRECTION('ref_axis',(0.,-1.,0.));
#686=DIRECTION('',(0.,-1.,0.));
#687=DIRECTION('center_axis',(0.,0.,1.));
#688=DIRECTION('ref_axis',(1.,0.,0.));
#689=DIRECTION('',(1.,0.,0.));
#690=DIRECTION('',(0.,1.,0.));
#691=DIRECTION('',(-1.,0.,0.));
#692=DIRECTION('center_axis',(0.,0.,-1.));
#693=DIRECTION('ref_axis',(1.,0.,0.));
#694=DIRECTION('center_axis',(0.,0.,-1.));
#695=DIRECTION('ref_axis',(1.,0.,0.));
#696=DIRECTION('center_axis',(0.,0.,-1.));
#697=DIRECTION('ref_axis',(1.,0.,0.));
#698=DIRECTION('center_axis',(0.,0.,-1.));
#699=DIRECTION('ref_axis',(1.,0.,0.));
#700=DIRECTION('',(0.,-1.,0.));
#701=DIRECTION('',(-1.,0.,0.));
#702=DIRECTION('',(0.,1.,0.));
#703=DIRECTION('',(1.,0.,0.));
#704=DIRECTION('center_axis',(0.,-1.,0.));
#705=DIRECTION('ref_axis',(1.,0.,0.));
#706=DIRECTION('center_axis',(0.,0.,1.));
#707=DIRECTION('ref_axis',(1.,0.,0.));
#708=DIRECTION('center_axis',(0.,0.,1.));
#709=DIRECTION('ref_axis',(1.,0.,0.));
#710=DIRECTION('center_axis',(0.,0.,1.));
#711=DIRECTION('ref_axis',(1.,0.,0.));
#712=DIRECTION('center_axis',(0.,0.,1.));
#713=DIRECTION('ref_axis',(1.,0.,0.));
#714=DIRECTION('center_axis',(0.,0.,1.));
#715=DIRECTION('ref_axis',(1.,0.,0.));
#716=DIRECTION('center_axis',(0.,0.,-1.));
#717=DIRECTION('ref_axis',(1.,0.,0.));
#718=DIRECTION('',(0.,0.,-1.));
#719=DIRECTION('center_axis',(0.,0.,-1.));
#720=DIRECTION('ref_axis',(1.,0.,0.));
#721=DIRECTION('',(0.,0.,-1.));
#722=DIRECTION('center_axis',(0.,0.,-1.));
#723=DIRECTION('ref_axis',(1.,0.,0.));
#724=DIRECTION('',(0.,0.,-1.));
#725=DIRECTION('center_axis',(0.,0.,-1.));
#726=DIRECTION('ref_axis',(1.,0.,0.));
#727=DIRECTION('',(0.,0.,-1.));
#728=DIRECTION('center_axis',(0.,0.,1.));
#729=DIRECTION('ref_axis',(0.,1.,0.));
#730=DIRECTION('',(0.,1.,0.));
#731=DIRECTION('',(-1.,0.,0.));
#732=DIRECTION('',(0.,-1.,0.));
#733=DIRECTION('',(-1.,0.,0.));
#734=DIRECTION('center_axis',(0.,-1.,1.38777878078144E-16));
#735=DIRECTION('ref_axis',(0.,1.38777878078144E-16,1.));
#736=DIRECTION('',(0.,1.38777878078144E-16,1.));
#737=DIRECTION('',(-1.,0.,0.));
#738=DIRECTION('',(0.,-1.38777878078144E-16,-1.));
#739=DIRECTION('center_axis',(0.,0.,-1.));
#740=DIRECTION('ref_axis',(0.,-1.,0.));
#741=DIRECTION('',(0.,-1.,0.));
#742=DIRECTION('',(-1.,0.,0.));
#743=DIRECTION('',(0.,1.,0.));
#744=DIRECTION('center_axis',(0.,1.,0.));
#745=DIRECTION('ref_axis',(0.,0.,-1.));
#746=DIRECTION('',(0.,0.,-1.));
#747=DIRECTION('',(0.,0.,1.));
#748=DIRECTION('center_axis',(0.,-1.,0.));
#749=DIRECTION('ref_axis',(1.,0.,0.));
#750=DIRECTION('',(-1.,0.,0.));
#751=DIRECTION('',(0.,0.,1.));
#752=DIRECTION('',(0.,0.,1.));
#753=DIRECTION('center_axis',(-1.,0.,0.));
#754=DIRECTION('ref_axis',(0.,-1.,0.));
#755=DIRECTION('',(0.,1.,0.));
#756=DIRECTION('',(0.,0.,1.));
#757=DIRECTION('center_axis',(1.,0.,0.));
#758=DIRECTION('ref_axis',(0.,1.,0.));
#759=DIRECTION('',(0.,-1.,0.));
#760=DIRECTION('',(0.,0.,1.));
#761=DIRECTION('center_axis',(0.,1.,0.));
#762=DIRECTION('ref_axis',(-1.,0.,0.));
#763=DIRECTION('',(1.,0.,0.));
#764=DIRECTION('center_axis',(1.,0.,0.));
#765=DIRECTION('ref_axis',(0.,1.,0.));
#766=DIRECTION('center_axis',(0.,1.,0.));
#767=DIRECTION('ref_axis',(-1.,0.,0.));
#768=DIRECTION('center_axis',(0.,0.,1.));
#769=DIRECTION('ref_axis',(1.,0.,0.));
#770=CARTESIAN_POINT('',(0.,0.,0.));
#771=CARTESIAN_POINT('Origin',(-37.4,33.4,2.));
#772=CARTESIAN_POINT('',(-37.4,35.4,2.));
#773=CARTESIAN_POINT('',(-39.4,33.4,2.));
#774=CARTESIAN_POINT('Origin',(-37.4,33.4,2.));
#775=CARTESIAN_POINT('',(-37.4,33.4,0.));
#776=CARTESIAN_POINT('Origin',(-37.4,33.4,2.));
#777=CARTESIAN_POINT('Origin',(-37.4,33.4,2.));
#778=CARTESIAN_POINT('Origin',(-37.4,-33.4,2.));
#779=CARTESIAN_POINT('',(-39.4,-33.4,2.));
#780=CARTESIAN_POINT('',(-37.4,-35.4,2.));
#781=CARTESIAN_POINT('Origin',(-37.4,-33.4,2.));
#782=CARTESIAN_POINT('',(-37.4,-33.4,0.));
#783=CARTESIAN_POINT('Origin',(-37.4,-33.4,2.));
#784=CARTESIAN_POINT('Origin',(-37.4,-33.4,2.));
#785=CARTESIAN_POINT('Origin',(-37.4,17.7,2.));
#786=CARTESIAN_POINT('',(-39.4,17.7,2.));
#787=CARTESIAN_POINT('',(-37.4,17.7,0.));
#788=CARTESIAN_POINT('Origin',(37.4,33.4,2.));
#789=CARTESIAN_POINT('',(37.4,33.4,0.));
#790=CARTESIAN_POINT('',(39.4,33.4,2.));
#791=CARTESIAN_POINT('Origin',(37.4,33.4,2.));
#792=CARTESIAN_POINT('',(37.4,35.4,2.));
#793=CARTESIAN_POINT('Origin',(37.4,33.4,2.));
#794=CARTESIAN_POINT('Origin',(37.4,33.4,2.));
#795=CARTESIAN_POINT('Origin',(19.7,33.4,2.));
#796=CARTESIAN_POINT('',(19.7,35.4,2.));
#797=CARTESIAN_POINT('',(19.7,33.4,0.));
#798=CARTESIAN_POINT('Origin',(37.4,33.4,0.));
#799=CARTESIAN_POINT('',(37.4,35.4,13.));
#800=CARTESIAN_POINT('',(39.4,33.4,13.));
#801=CARTESIAN_POINT('Origin',(37.4,33.4,13.));
#802=CARTESIAN_POINT('',(39.4,33.4,0.));
#803=CARTESIAN_POINT('',(37.4,35.4,0.));
#804=CARTESIAN_POINT('Origin',(37.4,-33.4,2.));
#805=CARTESIAN_POINT('',(37.4,-35.4,2.));
#806=CARTESIAN_POINT('',(39.4,-33.4,2.));
#807=CARTESIAN_POINT('Origin',(37.4,-33.4,2.));
#808=CARTESIAN_POINT('',(37.4,-33.4,0.));
#809=CARTESIAN_POINT('Origin',(37.4,-33.4,2.));
#810=CARTESIAN_POINT('Origin',(37.4,-33.4,2.));
#811=CARTESIAN_POINT('Origin',(-19.7,-33.4,2.));
#812=CARTESIAN_POINT('',(-19.7,-35.4,2.));
#813=CARTESIAN_POINT('',(-19.7,-33.4,0.));
#814=CARTESIAN_POINT('Origin',(37.4,-17.7,2.));
#815=CARTESIAN_POINT('',(39.4,-17.7,2.));
#816=CARTESIAN_POINT('',(37.4,-17.7,0.));
#817=CARTESIAN_POINT('Origin',(37.4,-33.4,0.));
#818=CARTESIAN_POINT('',(39.4,-33.4,13.));
#819=CARTESIAN_POINT('',(37.4,-35.4,13.));
#820=CARTESIAN_POINT('Origin',(37.4,-33.4,13.));
#821=CARTESIAN_POINT('',(37.4,-35.4,0.));
#822=CARTESIAN_POINT('',(39.4,-33.4,0.));
#823=CARTESIAN_POINT('Origin',(-37.4,-33.4,0.));
#824=CARTESIAN_POINT('',(-37.4,-35.4,13.));
#825=CARTESIAN_POINT('',(-39.4,-33.4,13.));
#826=CARTESIAN_POINT('Origin',(-37.4,-33.4,13.));
#827=CARTESIAN_POINT('',(-39.4,-33.4,0.));
#828=CARTESIAN_POINT('',(-37.4,-35.4,0.));
#829=CARTESIAN_POINT('Origin',(-37.4,33.4,0.));
#830=CARTESIAN_POINT('',(-39.4,33.4,13.));
#831=CARTESIAN_POINT('',(-37.4,35.4,13.));
#832=CARTESIAN_POINT('Origin',(-37.4,33.4,13.));
#833=CARTESIAN_POINT('',(-37.4,35.4,0.));
#834=CARTESIAN_POINT('',(-39.4,33.4,0.));
#835=CARTESIAN_POINT('Origin',(-39.4,35.4,0.));
#836=CARTESIAN_POINT('',(-39.4,35.4,13.));
#837=CARTESIAN_POINT('Origin',(0.,0.,13.));
#838=CARTESIAN_POINT('',(-39.4,-35.4,13.));
#839=CARTESIAN_POINT('',(39.4,-35.4,13.));
#840=CARTESIAN_POINT('',(39.4,35.4,13.));
#841=CARTESIAN_POINT('',(32.8,30.4,13.));
#842=CARTESIAN_POINT('Origin',(34.4,30.4,13.));
#843=CARTESIAN_POINT('',(-36.,-30.4,13.));
#844=CARTESIAN_POINT('Origin',(-34.4,-30.4,13.));
#845=CARTESIAN_POINT('',(-36.,30.4,13.));
#846=CARTESIAN_POINT('Origin',(-34.4,30.4,13.));
#847=CARTESIAN_POINT('',(32.8,-30.4,13.));
#848=CARTESIAN_POINT('Origin',(34.4,-30.4,13.));
#849=CARTESIAN_POINT('',(29.4,25.4,13.));
#850=CARTESIAN_POINT('',(29.4,-25.4,13.));
#851=CARTESIAN_POINT('',(29.4,-25.4,13.));
#852=CARTESIAN_POINT('',(-29.4,-25.4,13.));
#853=CARTESIAN_POINT('',(-29.4,-25.4,13.));
#854=CARTESIAN_POINT('',(-29.4,25.4,13.));
#855=CARTESIAN_POINT('',(-29.4,25.4,13.));
#856=CARTESIAN_POINT('',(29.4,25.4,13.));
#857=CARTESIAN_POINT('Origin',(-39.4,-35.4,0.));
#858=CARTESIAN_POINT('Origin',(0.,0.,0.));
#859=CARTESIAN_POINT('',(32.8,-30.4,0.));
#860=CARTESIAN_POINT('Origin',(34.4,-30.4,0.));
#861=CARTESIAN_POINT('',(-36.,30.4,0.));
#862=CARTESIAN_POINT('Origin',(-34.4,30.4,0.));
#863=CARTESIAN_POINT('',(-36.,-30.4,0.));
#864=CARTESIAN_POINT('Origin',(-34.4,-30.4,0.));
#865=CARTESIAN_POINT('',(32.8,30.4,0.));
#866=CARTESIAN_POINT('Origin',(34.4,30.4,0.));
#867=CARTESIAN_POINT('Origin',(34.4,30.4,13.));
#868=CARTESIAN_POINT('',(32.8,30.4,13.));
#869=CARTESIAN_POINT('Origin',(-34.4,-30.4,13.));
#870=CARTESIAN_POINT('',(-36.,-30.4,13.));
#871=CARTESIAN_POINT('Origin',(-34.4,30.4,13.));
#872=CARTESIAN_POINT('',(-36.,30.4,13.));
#873=CARTESIAN_POINT('Origin',(34.4,-30.4,13.));
#874=CARTESIAN_POINT('',(32.8,-30.4,13.));
#875=CARTESIAN_POINT('Origin',(39.4,-6.,11.3977147382819));
#876=CARTESIAN_POINT('',(39.4,-6.,11.3977147382819));
#877=CARTESIAN_POINT('',(39.4,6.,11.3977147382819));
#878=CARTESIAN_POINT('',(39.4,-20.7,11.3977147382819));
#879=CARTESIAN_POINT('',(29.4,-6.,11.3977147382819));
#880=CARTESIAN_POINT('',(39.4,-6.,11.3977147382819));
#881=CARTESIAN_POINT('',(29.4,6.,11.3977147382819));
#882=CARTESIAN_POINT('',(29.4,9.7,11.3977147382819));
#883=CARTESIAN_POINT('',(39.4,6.,11.3977147382819));
#884=CARTESIAN_POINT('Origin',(39.4,-6.,3.39771473828187));
#885=CARTESIAN_POINT('',(39.4,-6.,3.39771473828187));
#886=CARTESIAN_POINT('',(39.4,-6.,1.69885736914093));
#887=CARTESIAN_POINT('',(29.4,-6.,3.39771473828187));
#888=CARTESIAN_POINT('',(39.4,-6.,3.39771473828187));
#889=CARTESIAN_POINT('',(29.4,-6.,1.69885736914094));
#890=CARTESIAN_POINT('Origin',(39.4,6.,3.39771473828187));
#891=CARTESIAN_POINT('',(39.4,6.,3.39771473828187));
#892=CARTESIAN_POINT('',(39.4,-14.7,3.39771473828187));
#893=CARTESIAN_POINT('',(29.4,6.,3.39771473828187));
#894=CARTESIAN_POINT('',(39.4,6.,3.39771473828187));
#895=CARTESIAN_POINT('',(29.4,15.7,3.39771473828187));
#896=CARTESIAN_POINT('Origin',(39.4,6.,11.3977147382819));
#897=CARTESIAN_POINT('',(39.4,6.,5.69885736914093));
#898=CARTESIAN_POINT('',(29.4,6.,5.69885736914093));
#899=CARTESIAN_POINT('Origin',(-29.4,25.4,0.));
#900=CARTESIAN_POINT('',(29.4,25.4,3.));
#901=CARTESIAN_POINT('',(-29.4,25.4,3.));
#902=CARTESIAN_POINT('',(29.4,25.4,3.));
#903=CARTESIAN_POINT('',(29.4,25.4,0.));
#904=CARTESIAN_POINT('',(-29.4,25.4,0.));
#905=CARTESIAN_POINT('Origin',(29.4,25.4,0.));
#906=CARTESIAN_POINT('',(29.4,-25.4,3.));
#907=CARTESIAN_POINT('',(29.4,-25.4,3.));
#908=CARTESIAN_POINT('',(29.4,-25.4,0.));
#909=CARTESIAN_POINT('Origin',(-29.4,-25.4,0.));
#910=CARTESIAN_POINT('',(-29.4,-25.4,3.));
#911=CARTESIAN_POINT('',(-29.4,25.4,3.));
#912=CARTESIAN_POINT('',(-29.4,-25.4,0.));
#913=CARTESIAN_POINT('Origin',(29.4,-25.4,0.));
#914=CARTESIAN_POINT('',(-29.4,-25.4,3.));
#915=CARTESIAN_POINT('Origin',(39.4,-35.4,0.));
#916=CARTESIAN_POINT('Origin',(39.4,35.4,0.));
#917=CARTESIAN_POINT('Origin',(0.,0.,3.));
#918=UNCERTAINTY_MEASURE_WITH_UNIT(LENGTH_MEASURE(0.01),#922,
'DISTANCE_ACCURACY_VALUE',
'Maximum model space distance between geometric entities at asserted c
onnectivities');
#919=UNCERTAINTY_MEASURE_WITH_UNIT(LENGTH_MEASURE(0.01),#922,
'DISTANCE_ACCURACY_VALUE',
'Maximum model space distance between geometric entities at asserted c
onnectivities');
#920=(
GEOMETRIC_REPRESENTATION_CONTEXT(3)
GLOBAL_UNCERTAINTY_ASSIGNED_CONTEXT((#918))
GLOBAL_UNIT_ASSIGNED_CONTEXT((#922,#924,#925))
REPRESENTATION_CONTEXT('','3D')
);
#921=(
GEOMETRIC_REPRESENTATION_CONTEXT(3)
GLOBAL_UNCERTAINTY_ASSIGNED_CONTEXT((#919))
GLOBAL_UNIT_ASSIGNED_CONTEXT((#922,#924,#925))
REPRESENTATION_CONTEXT('','3D')
);
#922=(
LENGTH_UNIT()
NAMED_UNIT(*)
SI_UNIT(.MILLI.,.METRE.)
);
#923=(
LENGTH_UNIT()
NAMED_UNIT(*)
SI_UNIT($,.METRE.)
);
#924=(
NAMED_UNIT(*)
PLANE_ANGLE_UNIT()
SI_UNIT($,.RADIAN.)
);
#925=(
NAMED_UNIT(*)
SI_UNIT($,.STERADIAN.)
SOLID_ANGLE_UNIT()
);
#926=SHAPE_DEFINITION_REPRESENTATION(#927,#928);
#927=PRODUCT_DEFINITION_SHAPE('',$,#930);
#928=SHAPE_REPRESENTATION('',(#554),#920);
#929=PRODUCT_DEFINITION_CONTEXT('part definition',#934,'design');
#930=PRODUCT_DEFINITION('2026-05-30-22-28-03-099','Bottom Case',#931,#929);
#931=PRODUCT_DEFINITION_FORMATION('',$,#936);
#932=PRODUCT_RELATED_PRODUCT_CATEGORY('Bottom Case','Bottom Case',(#936));
#933=APPLICATION_PROTOCOL_DEFINITION('international standard',
'automotive_design',2009,#934);
#934=APPLICATION_CONTEXT(
'Core Data for Automotive Mechanical Design Process');
#935=PRODUCT_CONTEXT('part definition',#934,'mechanical');
#936=PRODUCT('2026-05-30-22-28-03-099','Bottom Case',$,(#935));
#937=PRESENTATION_STYLE_ASSIGNMENT((#939));
#938=PRESENTATION_STYLE_ASSIGNMENT((#940));
#939=SURFACE_STYLE_USAGE(.BOTH.,#941);
#940=SURFACE_STYLE_USAGE(.BOTH.,#942);
#941=SURFACE_SIDE_STYLE('',(#943));
#942=SURFACE_SIDE_STYLE('',(#944));
#943=SURFACE_STYLE_FILL_AREA(#945);
#944=SURFACE_STYLE_FILL_AREA(#946);
#945=FILL_AREA_STYLE('Steel - Satin',(#947));
#946=FILL_AREA_STYLE('Matte Black',(#948));
#947=FILL_AREA_STYLE_COLOUR('Steel - Satin',#949);
#948=FILL_AREA_STYLE_COLOUR('Matte Black',#950);
#949=COLOUR_RGB('Steel - Satin',0.627450980392157,0.627450980392157,0.627450980392157);
#950=COLOUR_RGB('Matte Black',0.0980392156862745,0.0980392156862745,0.0980392156862745);
ENDSEC;
END-ISO-10303-21;
